<svg xmlns="http://www.w3.org/2000/svg"
    width="24"
    height="24"
    viewBox="0 -960 960 960">

    <circle fill="#43A047" cx="50%" cy="-50%" r="50%" />

    <!--
        Make this match the Android icon exactly. Android adaptive icons take the inner (centered)
        2/3rds of the foreground's viewbox and crop out the rest [1].

        ic_foreground is at 1/2 scale and then cropped to 2/3rds of the original viewbox, so it
        takes up (1/2) / (2/3) = 3/4 of the cropped viewbox. In this SVG version, we don't crop.
        Instead, the full size icon is scaled down to 3/4 to match.

        [1] https://cs.android.com/android/platform/superproject/+/android-13.0.0_r31:frameworks/base/graphics/java/android/graphics/drawable/AdaptiveIconDrawable.java;l=106
    -->

    <g transform-origin="50% -50%" transform="scale(0.75 0.75)">
        <path
            fill="#ffffff"
            d="M777.61-140q-113.07 0-227.19-52.58-114.11-52.58-209.88-148.34-95.38-95.77-147.96-209.7Q140-664.54 140-777.61q0-18 12-30.2Q164-820 182-820h130.46q15.15 0 26.73 9.89 11.58 9.88 14.73 24.42L376.85-668q2.38 16.38-1 28.15-3.39 11.77-12.16 19.77l-92.38 89.93q22.3 40.84 50.96 77.27 28.65 36.42 62.04 69.57 32.92 32.93 70 61.16 37.08 28.23 80.08 52.54l89.76-90.54q9.39-9.77 22.74-13.7 13.34-3.92 27.73-1.92l111.07 22.62q15.15 4 24.73 15.46t9.58 26V-182q0 18-12.19 30-12.2 12-30.2 12Z" />

        <g transform="translate(100 -120)">
            <g transform-origin="50% -50%" transform="scale(0.4 0.4)">
                <path
                    fill="#ffffff"
                    d="M480-420q-41.92 0-70.96-29.04Q380-478.08 380-520v-240q0-41.92 29.04-70.96Q438.08-860 480-860q41.92 0 70.96 29.04Q580-801.92 580-760v240q0 41.92-29.04 70.96Q521.92-420 480-420Zm-30 260v-101.85q-89.31-10.31-153.08-73.38-63.76-63.08-74.69-153.77-1.61-12.77 6.69-21.88Q237.23-520 250-520q12.77 0 21.38 8.81 8.62 8.8 11.47 21.57 10.92 73.47 67.19 121.54Q406.31-320 480-320q74.69 0 130.46-48.58 55.77-48.57 66.69-121.04 2.85-12.77 11.47-21.57Q697.23-520 710-520t21.08 9.12q8.3 9.11 6.69 21.88-10.93 88.69-74.19 152.58-63.27 63.88-153.58 74.57V-160q0 12.77-8.62 21.38Q492.77-130 480-130t-21.38-8.62Q450-147.23 450-160Z" />
            </g>
        </g>
    </g>
</svg>
